<svg width="26" height="26" viewBox="0 0 26 26" fill="none" xmlns="http://www.w3.org/2000/svg">
<g id="Icon/Key">
<circle id="Oval" cx="18.0625" cy="7.56543" r="1.5" fill="#A7A6C5" stroke="#A7A6C5"/>
<path id="Path" d="M24.7412 8.77833C24.2405 7.50361 23.3225 5.66438 21.792 4.14113C20.2669 2.62313 18.4472 1.73138 17.1892 1.25053C15.808 0.722675 14.2386 1.05539 13.191 2.09813L9.5095 5.76235C8.4182 6.84849 8.10367 8.51977 8.72678 9.9211C8.92 10.3557 9.13014 10.7808 9.35467 11.1916L1.27459 19.2716C1.09877 19.4474 1 19.6859 1 19.9345V24.0595C1 24.5773 1.41972 24.997 1.9375 24.997H6.0625C6.58028 24.997 7 24.5773 7 24.0595V22.372L8.6875 22.372C9.20528 22.372 9.625 21.9523 9.625 21.4345V19.747H11.3125C11.8303 19.747 12.25 19.3273 12.25 18.8095C12.25 18.2918 11.8303 17.872 11.3125 17.872H8.6875C8.16972 17.872 7.75 18.2918 7.75 18.8095V20.497L6.0625 20.497C5.54472 20.497 5.125 20.9168 5.125 21.4345V23.122H2.875V20.3228L11.1885 12.0094C11.494 11.7039 11.5512 11.2294 11.3272 10.8601C11.0023 10.3246 10.7038 9.75239 10.4402 9.15928C10.1308 8.46361 10.2884 7.63257 10.8323 7.09121L14.5137 3.42703C15.0393 2.90396 15.8267 2.73713 16.5199 3.00197C17.6084 3.41803 19.1772 4.18388 20.4694 5.47003C21.7695 6.76397 22.561 8.35599 22.996 9.46364C23.2674 10.155 23.1025 10.9403 22.5757 11.4646L18.8498 15.1731C18.3072 15.713 17.4974 15.8709 16.7866 15.5753C16.2003 15.3314 15.6325 15.0417 15.0991 14.7143C14.6578 14.4435 14.0805 14.5816 13.8097 15.0229C13.5388 15.4642 13.677 16.0415 14.1182 16.3124C14.7347 16.6907 15.3903 17.0252 16.0665 17.3064C17.4794 17.8942 19.0911 17.5783 20.1725 16.502L23.8984 12.7936C24.9552 11.7418 25.286 10.1657 24.7412 8.77833Z" fill="#A7A6C5" stroke="#A7A6C5" stroke-width="0.5"/>
</g>
</svg>
