<svg width="17" height="24" viewBox="0 0 17 24" fill="none" xmlns="http://www.w3.org/2000/svg">
<g id="Icon/Placeholder-Big">
<path id="Shape" fill-rule="evenodd" clip-rule="evenodd" d="M0 8.22857C0 3.69106 3.69106 0 8.22857 0C12.7661 0 16.4571 3.69106 16.4571 8.22857C16.4571 9.71584 16.0554 11.1737 15.2974 12.444L8.93175 23.0719C8.66935 23.512 8.03072 23.5187 7.75986 23.0813L1.22747 12.5552C0.424549 11.2574 0 9.76137 0 8.22857ZM4.10514 8.22857C4.10514 10.4787 5.92709 12.352 8.22857 12.352C10.5546 12.352 12.352 10.4588 12.352 8.22857C12.352 5.95982 10.4973 4.10514 8.22857 4.10514C5.95982 4.10514 4.10514 5.95982 4.10514 8.22857Z" fill="#F8D068"/>
</g>
</svg>
