<svg width="40" height="40" viewBox="0 0 40 40" fill="none" xmlns="http://www.w3.org/2000/svg">
<g id="Icon/Search">
<g id="loupe">
<g id="Shape">
<path fill-rule="evenodd" clip-rule="evenodd" d="M22.6884 21.7532L27.7971 26.8619C28.0575 27.1223 28.0575 27.5444 27.7971 27.8048C27.5368 28.0651 27.1146 28.0651 26.8543 27.8048L21.7439 22.6944C20.7188 23.5114 19.4203 24 18.0076 24C14.694 24 12.0076 21.3135 12.0076 18C12.0076 14.6865 14.694 12 18.0076 12C21.3211 12 24.0076 14.6865 24.0076 18C24.0076 19.4205 23.5135 20.7254 22.6884 21.7532ZM18.0076 13.3333C15.4305 13.3333 13.3409 15.4228 13.3409 18C13.3409 20.5772 15.4305 22.6667 18.0076 22.6667C19.2923 22.6667 20.4557 22.1474 21.2996 21.3074L21.2997 21.3073L21.2999 21.3071C22.1488 20.462 22.6743 19.2923 22.6743 18C22.6743 15.4228 20.5847 13.3333 18.0076 13.3333Z" fill="#25367B"/>
<path d="M27.7971 26.8619L27.4436 27.2155L27.4436 27.2155L27.7971 26.8619ZM22.6884 21.7532L22.2985 21.4402L22.0178 21.7897L22.3348 22.1067L22.6884 21.7532ZM27.7971 27.8048L27.4436 27.4512L27.4435 27.4512L27.7971 27.8048ZM21.7439 22.6944L22.0975 22.3408L21.7816 22.025L21.4323 22.3034L21.7439 22.6944ZM18.0076 22.6667L18.0076 23.1667H18.0076V22.6667ZM21.2996 21.3074L21.6523 21.6618L21.6725 21.6417L21.6902 21.6195L21.2996 21.3074ZM21.2997 21.3073L20.9454 20.9545L20.9261 20.9739L20.909 20.9952L21.2997 21.3073ZM21.2999 21.3071L20.9471 20.9527L20.9456 20.9543L21.2999 21.3071ZM28.1507 26.5084L23.0419 21.3996L22.3348 22.1067L27.4436 27.2155L28.1507 26.5084ZM28.1506 28.1583C28.6063 27.7027 28.6063 26.964 28.1507 26.5084L27.4436 27.2155C27.5087 27.2806 27.5087 27.3861 27.4436 27.4512L28.1506 28.1583ZM26.5007 28.1583C26.9563 28.6139 27.695 28.6139 28.1507 28.1583L27.4435 27.4512C27.3785 27.5163 27.2729 27.5163 27.2078 27.4512L26.5007 28.1583ZM21.3904 23.0479L26.5007 28.1583L27.2078 27.4512L22.0975 22.3408L21.3904 23.0479ZM18.0076 24.5C19.5376 24.5 20.9451 23.9704 22.0555 23.0854L21.4323 22.3034C20.4924 23.0524 19.303 23.5 18.0076 23.5V24.5ZM11.5076 18C11.5076 21.5897 14.4179 24.5 18.0076 24.5V23.5C14.9702 23.5 12.5076 21.0374 12.5076 18H11.5076ZM18.0076 11.5C14.4179 11.5 11.5076 14.4103 11.5076 18H12.5076C12.5076 14.9626 14.9702 12.5 18.0076 12.5V11.5ZM24.5076 18C24.5076 14.4103 21.5972 11.5 18.0076 11.5V12.5C21.045 12.5 23.5076 14.9626 23.5076 18H24.5076ZM23.0783 22.0662C23.972 20.953 24.5076 19.5385 24.5076 18H23.5076C23.5076 19.3025 23.055 20.4979 22.2985 21.4402L23.0783 22.0662ZM13.8409 18C13.8409 15.699 15.7066 13.8333 18.0076 13.8333V12.8333C15.1543 12.8333 12.8409 15.1467 12.8409 18H13.8409ZM18.0076 22.1667C15.7066 22.1667 13.8409 20.301 13.8409 18H12.8409C12.8409 20.8533 15.1543 23.1667 18.0076 23.1667L18.0076 22.1667ZM20.9468 20.9531C20.1928 21.7036 19.1547 22.1667 18.0076 22.1667V23.1667C19.4298 23.1667 20.7185 22.5912 21.6523 21.6618L20.9468 20.9531ZM20.909 20.9952L20.9089 20.9954L21.6902 21.6195L21.6904 21.6193L20.909 20.9952ZM20.9456 20.9543L20.9454 20.9545L21.654 21.6601L21.6542 21.6598L20.9456 20.9543ZM22.1743 18C22.1743 19.1539 21.7057 20.1976 20.9471 20.9527L21.6527 21.6614C22.5919 20.7264 23.1743 19.4307 23.1743 18H22.1743ZM18.0076 13.8333C20.3086 13.8333 22.1743 15.699 22.1743 18H23.1743C23.1743 15.1467 20.8609 12.8333 18.0076 12.8333V13.8333Z" fill="#25367B"/>
</g>
</g>
</g>
</svg>
