<svg width="79" height="80" viewBox="0 0 79 80" fill="none" xmlns="http://www.w3.org/2000/svg">
<g id="Icon/Success">
<path id="Path" d="M71.7796 43.5111C71.7796 63.3108 55.7271 79.3615 35.9279 79.3615C31.0708 79.3615 26.4407 78.3958 22.2175 76.6453C10.6746 71.8638 2.17247 61.2262 0.414767 48.4385C0.191345 46.8279 0.0775146 45.1828 0.0775146 43.5111C0.0775146 23.7101 16.1282 7.65942 35.9279 7.65942C55.7271 7.65942 71.7796 23.7101 71.7796 43.5111Z" fill="#25367B"/>
<path id="Path_2" d="M35.9279 7.65942C34.0322 7.65942 32.1715 7.80777 30.3557 8.09113C47.5095 10.768 60.6357 25.6052 60.6357 43.5111C60.6357 61.4145 47.5108 76.2512 30.3581 78.9292C32.1734 79.2125 34.0328 79.3615 35.9273 79.3615C55.7271 79.3615 71.7796 63.3108 71.7796 43.5111C71.7796 23.7101 55.7271 7.65942 35.9279 7.65942Z" fill="#172663"/>
<path id="Path_3" d="M76.2553 40.8607L55.7834 54.4168C54.3248 55.3831 52.558 55.7664 50.8312 55.4903C49.1001 55.2148 47.3291 55.5926 45.8669 56.5608L43.1271 58.3766L27.7842 35.7601L31.5485 19.4982C31.841 18.2321 31.9857 16.9491 31.9857 15.6709C31.9857 12.3644 31.0187 9.10088 29.1641 6.29932C28.7082 5.61029 28.4902 4.83104 28.4902 4.06147C28.4902 2.74637 29.1284 1.4561 30.3079 0.675027C31.8973 -0.377901 34.0037 -0.182332 35.3721 1.14488L37.811 3.50685C40.5998 6.21274 42.7511 9.50715 44.1019 13.1509L45.4243 16.7111L59.0421 7.71372C61.217 6.27389 64.159 6.90359 65.548 9.13115C66.8873 11.277 66.1995 14.1124 64.0894 15.5093C64.064 15.5262 64.0621 15.5535 64.0706 15.5741C64.0827 15.5965 64.1082 15.6116 64.1366 15.5995C64.6749 15.3924 65.238 15.2919 65.7962 15.2919C66.6875 15.2919 67.5709 15.5486 68.3265 16.0372C68.8472 16.3739 69.3086 16.8213 69.6725 17.3711C70.3755 18.4331 70.585 19.6786 70.3549 20.8363C69.994 22.66 68.6686 23.5997 68.4083 23.7765C68.3641 23.8074 68.352 23.8685 68.3828 23.9145C68.3828 23.9157 68.3847 23.9176 68.3859 23.9176C68.4149 23.9587 68.4743 23.9702 68.5167 23.9436C68.8878 23.8534 69.2656 23.8104 69.6435 23.8104C70.5656 23.8104 71.4829 24.0726 72.2628 24.5697C72.7901 24.9069 73.2563 25.3525 73.6172 25.8987C75.0328 28.036 74.4479 30.9169 72.3082 32.3331C72.2555 32.3688 72.2028 32.4046 72.1501 32.4385C72.1199 32.4627 72.1108 32.5014 72.1265 32.5287C72.1296 32.5354 72.1368 32.5426 72.1435 32.5456C72.1671 32.5644 72.2046 32.5662 72.2355 32.5426C73.5645 32.0897 75.011 32.2956 76.1748 33.0494C76.7106 33.3933 77.1859 33.8565 77.5619 34.4244C78.9781 36.5636 78.3926 39.4445 76.2553 40.8607Z" fill="#FDD7BD"/>
<path id="Path_4" d="M43.3226 62.6689L34.6861 68.3883L22.2174 76.6452C10.6746 71.8631 2.17244 61.2273 0.414734 48.4383L14.8845 38.856L23.693 33.0222C24.7072 32.3501 26.0756 32.6293 26.7476 33.6453L43.9457 59.6124C44.6178 60.6284 44.3386 61.9944 43.3226 62.6689Z" fill="#F9DE99"/>
<path id="Path_5" d="M43.3227 62.6689L34.6861 68.3883L14.8845 38.856L23.693 33.0222C24.7072 32.3501 26.0756 32.6293 26.7477 33.6453L43.9457 59.6118C44.6178 60.6284 44.3387 61.9944 43.3227 62.6689Z" fill="#F3BE37"/>
<g id="Group">
<path id="Path_6" d="M68.3265 16.0367L61.5143 19.6823C60.5479 20.1982 59.3497 19.9288 58.7 19.049L64.0706 15.5741C64.0827 15.5965 64.1082 15.6117 64.1366 15.5996C64.6749 15.3925 65.238 15.292 65.7962 15.292C66.6881 15.292 67.5709 15.5487 68.3265 16.0367Z" fill="#FAC5AA"/>
<path id="Path_7" d="M72.2627 24.5696L65.5988 28.1328C64.6325 28.6505 63.4342 28.3817 62.7839 27.5019L68.1545 24.0265L68.3864 23.9175C68.4155 23.9586 68.4748 23.9701 68.5172 23.9435C68.8884 23.8533 69.2662 23.8103 69.644 23.8103C70.5662 23.8103 71.4835 24.0725 72.2627 24.5696Z" fill="#FAC5AA"/>
<path id="Path_8" d="M76.1754 33.0494L70.3058 36.1894C69.3407 36.7047 68.1431 36.4358 67.491 35.5561L72.1435 32.5456C72.1677 32.5644 72.2052 32.5662 72.2355 32.542C73.5645 32.0897 75.011 32.2956 76.1754 33.0494Z" fill="#FAC5AA"/>
</g>
</g>
</svg>
